<mxfile host="Electron" agent="Mozilla/5.0 (Windows NT 10.0; Win64; x64) AppleWebKit/537.36 (KHTML, like Gecko) draw.io/28.1.2 Chrome/138.0.7204.243 Electron/37.4.0 Safari/537.36" version="28.1.2" pages="4">
  <diagram name="Use-Case" id="8faNoyIgg0-AxzOjIfcw">
    <mxGraphModel dx="679" dy="400" grid="1" gridSize="10" guides="1" tooltips="1" connect="1" arrows="1" fold="1" page="1" pageScale="1" pageWidth="827" pageHeight="1169" math="0" shadow="0">
      <root>
        <mxCell id="0" />
        <mxCell id="1" parent="0" />
        <mxCell id="F0Ko90pGz6FekVmcfMTk-1" value="Фотостудия" style="rounded=0;whiteSpace=wrap;html=1;align=left;verticalAlign=top;" vertex="1" parent="1">
          <mxGeometry x="140" y="80" width="310" height="390" as="geometry" />
        </mxCell>
        <mxCell id="oOiD4s9uuxMNuC391UF0-1" value="Администратор" style="shape=umlActor;verticalLabelPosition=bottom;verticalAlign=top;html=1;outlineConnect=0;" parent="1" vertex="1">
          <mxGeometry x="77" y="180" width="30" height="60" as="geometry" />
        </mxCell>
        <mxCell id="oOiD4s9uuxMNuC391UF0-2" value="Фотограф" style="shape=umlActor;verticalLabelPosition=bottom;verticalAlign=top;html=1;outlineConnect=0;" parent="1" vertex="1">
          <mxGeometry x="481" y="175" width="30" height="60" as="geometry" />
        </mxCell>
        <mxCell id="oOiD4s9uuxMNuC391UF0-3" value="Клиент" style="shape=umlActor;verticalLabelPosition=bottom;verticalAlign=top;html=1;outlineConnect=0;" parent="1" vertex="1">
          <mxGeometry x="77" y="340" width="30" height="60" as="geometry" />
        </mxCell>
        <mxCell id="oOiD4s9uuxMNuC391UF0-4" value="Управление услугами" style="ellipse;whiteSpace=wrap;html=1;" parent="1" vertex="1">
          <mxGeometry x="152" y="125" width="90" height="30" as="geometry" />
        </mxCell>
        <mxCell id="oOiD4s9uuxMNuC391UF0-5" value="Управление товарами" style="ellipse;whiteSpace=wrap;html=1;" parent="1" vertex="1">
          <mxGeometry x="172" y="170" width="90" height="30" as="geometry" />
        </mxCell>
        <mxCell id="oOiD4s9uuxMNuC391UF0-6" value="Управление пользователями" style="ellipse;whiteSpace=wrap;html=1;" parent="1" vertex="1">
          <mxGeometry x="159.5" y="210" width="105" height="40" as="geometry" />
        </mxCell>
        <mxCell id="oOiD4s9uuxMNuC391UF0-7" value="Управление расписанием" style="ellipse;whiteSpace=wrap;html=1;" parent="1" vertex="1">
          <mxGeometry x="310" y="120" width="92.5" height="40" as="geometry" />
        </mxCell>
        <mxCell id="oOiD4s9uuxMNuC391UF0-8" value="Редактировать портфолио" style="ellipse;whiteSpace=wrap;html=1;" parent="1" vertex="1">
          <mxGeometry x="332" y="210" width="102.5" height="40" as="geometry" />
        </mxCell>
        <mxCell id="oOiD4s9uuxMNuC391UF0-9" value="Просмотреть расписание" style="ellipse;whiteSpace=wrap;html=1;" parent="1" vertex="1">
          <mxGeometry x="310" y="165" width="100" height="40" as="geometry" />
        </mxCell>
        <mxCell id="oOiD4s9uuxMNuC391UF0-10" value="Загрузить фото клиенту" style="ellipse;whiteSpace=wrap;html=1;" parent="1" vertex="1">
          <mxGeometry x="310" y="255" width="100" height="40" as="geometry" />
        </mxCell>
        <mxCell id="oOiD4s9uuxMNuC391UF0-11" value="Регистрация" style="ellipse;whiteSpace=wrap;html=1;" parent="1" vertex="1">
          <mxGeometry x="332" y="379" width="90" height="30" as="geometry" />
        </mxCell>
        <mxCell id="oOiD4s9uuxMNuC391UF0-12" value="Авторизация" style="ellipse;whiteSpace=wrap;html=1;" parent="1" vertex="1">
          <mxGeometry x="154.5" y="290" width="85" height="30" as="geometry" />
        </mxCell>
        <mxCell id="oOiD4s9uuxMNuC391UF0-13" value="Оформление заказа" style="ellipse;whiteSpace=wrap;html=1;" parent="1" vertex="1">
          <mxGeometry x="312.5" y="332" width="95" height="30" as="geometry" />
        </mxCell>
        <mxCell id="oOiD4s9uuxMNuC391UF0-14" value="Просмотр истории заказов" style="ellipse;whiteSpace=wrap;html=1;" parent="1" vertex="1">
          <mxGeometry x="172" y="412" width="110.5" height="43" as="geometry" />
        </mxCell>
        <mxCell id="oOiD4s9uuxMNuC391UF0-15" value="Просмотр фотоархива" style="ellipse;whiteSpace=wrap;html=1;" parent="1" vertex="1">
          <mxGeometry x="189.25" y="320" width="95" height="30" as="geometry" />
        </mxCell>
        <mxCell id="oOiD4s9uuxMNuC391UF0-21" value="" style="endArrow=none;html=1;rounded=0;entryX=0;entryY=0.5;entryDx=0;entryDy=0;" parent="1" target="oOiD4s9uuxMNuC391UF0-12" edge="1">
          <mxGeometry width="50" height="50" relative="1" as="geometry">
            <mxPoint x="112" y="365" as="sourcePoint" />
            <mxPoint x="302" y="350" as="targetPoint" />
          </mxGeometry>
        </mxCell>
        <mxCell id="oOiD4s9uuxMNuC391UF0-22" value="" style="endArrow=none;html=1;rounded=0;entryX=0;entryY=0.5;entryDx=0;entryDy=0;" parent="1" target="oOiD4s9uuxMNuC391UF0-13" edge="1">
          <mxGeometry width="50" height="50" relative="1" as="geometry">
            <mxPoint x="112" y="365" as="sourcePoint" />
            <mxPoint x="302" y="350" as="targetPoint" />
          </mxGeometry>
        </mxCell>
        <mxCell id="oOiD4s9uuxMNuC391UF0-23" value="" style="endArrow=none;html=1;rounded=0;entryX=0;entryY=0.5;entryDx=0;entryDy=0;" parent="1" target="oOiD4s9uuxMNuC391UF0-14" edge="1">
          <mxGeometry width="50" height="50" relative="1" as="geometry">
            <mxPoint x="112" y="365" as="sourcePoint" />
            <mxPoint x="302" y="350" as="targetPoint" />
          </mxGeometry>
        </mxCell>
        <mxCell id="oOiD4s9uuxMNuC391UF0-24" value="" style="endArrow=none;html=1;rounded=0;entryX=0;entryY=0.5;entryDx=0;entryDy=0;" parent="1" target="oOiD4s9uuxMNuC391UF0-15" edge="1">
          <mxGeometry width="50" height="50" relative="1" as="geometry">
            <mxPoint x="112" y="365" as="sourcePoint" />
            <mxPoint x="302" y="350" as="targetPoint" />
          </mxGeometry>
        </mxCell>
        <mxCell id="oOiD4s9uuxMNuC391UF0-35" value="" style="endArrow=none;html=1;rounded=0;entryX=1;entryY=0.5;entryDx=0;entryDy=0;" parent="1" target="oOiD4s9uuxMNuC391UF0-7" edge="1">
          <mxGeometry width="50" height="50" relative="1" as="geometry">
            <mxPoint x="481" y="205" as="sourcePoint" />
            <mxPoint x="111" y="175" as="targetPoint" />
          </mxGeometry>
        </mxCell>
        <mxCell id="oOiD4s9uuxMNuC391UF0-36" value="" style="endArrow=none;html=1;rounded=0;entryX=1;entryY=0.5;entryDx=0;entryDy=0;" parent="1" target="oOiD4s9uuxMNuC391UF0-8" edge="1">
          <mxGeometry width="50" height="50" relative="1" as="geometry">
            <mxPoint x="481" y="205" as="sourcePoint" />
            <mxPoint x="111" y="175" as="targetPoint" />
          </mxGeometry>
        </mxCell>
        <mxCell id="oOiD4s9uuxMNuC391UF0-37" value="" style="endArrow=none;html=1;rounded=0;entryX=1;entryY=0.5;entryDx=0;entryDy=0;" parent="1" target="oOiD4s9uuxMNuC391UF0-9" edge="1">
          <mxGeometry width="50" height="50" relative="1" as="geometry">
            <mxPoint x="481" y="205" as="sourcePoint" />
            <mxPoint x="111" y="175" as="targetPoint" />
          </mxGeometry>
        </mxCell>
        <mxCell id="oOiD4s9uuxMNuC391UF0-38" value="" style="endArrow=none;html=1;rounded=0;entryX=1;entryY=0.5;entryDx=0;entryDy=0;" parent="1" target="oOiD4s9uuxMNuC391UF0-10" edge="1">
          <mxGeometry width="50" height="50" relative="1" as="geometry">
            <mxPoint x="481" y="205" as="sourcePoint" />
            <mxPoint x="111" y="175" as="targetPoint" />
          </mxGeometry>
        </mxCell>
        <mxCell id="oOiD4s9uuxMNuC391UF0-39" value="" style="endArrow=none;html=1;rounded=0;entryX=0;entryY=0.5;entryDx=0;entryDy=0;" parent="1" target="oOiD4s9uuxMNuC391UF0-4" edge="1">
          <mxGeometry width="50" height="50" relative="1" as="geometry">
            <mxPoint x="107" y="210" as="sourcePoint" />
            <mxPoint x="197" y="290" as="targetPoint" />
          </mxGeometry>
        </mxCell>
        <mxCell id="oOiD4s9uuxMNuC391UF0-40" value="" style="endArrow=none;html=1;rounded=0;entryX=0;entryY=0.5;entryDx=0;entryDy=0;" parent="1" target="oOiD4s9uuxMNuC391UF0-5" edge="1">
          <mxGeometry width="50" height="50" relative="1" as="geometry">
            <mxPoint x="107" y="210" as="sourcePoint" />
            <mxPoint x="197" y="290" as="targetPoint" />
          </mxGeometry>
        </mxCell>
        <mxCell id="oOiD4s9uuxMNuC391UF0-41" value="" style="endArrow=none;html=1;rounded=0;entryX=0;entryY=0.5;entryDx=0;entryDy=0;" parent="1" target="oOiD4s9uuxMNuC391UF0-6" edge="1">
          <mxGeometry width="50" height="50" relative="1" as="geometry">
            <mxPoint x="107" y="210" as="sourcePoint" />
            <mxPoint x="197" y="290" as="targetPoint" />
          </mxGeometry>
        </mxCell>
        <mxCell id="oOiD4s9uuxMNuC391UF0-42" value="Гость" style="shape=umlActor;verticalLabelPosition=bottom;verticalAlign=top;html=1;outlineConnect=0;" parent="1" vertex="1">
          <mxGeometry x="483" y="310" width="30" height="60" as="geometry" />
        </mxCell>
        <mxCell id="oOiD4s9uuxMNuC391UF0-54" value="" style="endArrow=none;html=1;rounded=0;entryX=1;entryY=0.5;entryDx=0;entryDy=0;" parent="1" target="oOiD4s9uuxMNuC391UF0-13" edge="1">
          <mxGeometry width="50" height="50" relative="1" as="geometry">
            <mxPoint x="482" y="335" as="sourcePoint" />
            <mxPoint x="169.50000000000023" y="579" as="targetPoint" />
          </mxGeometry>
        </mxCell>
        <mxCell id="ZmhF_j-QxhQSGJ7hF8ik-1" value="Авторизация" style="ellipse;whiteSpace=wrap;html=1;" parent="1" vertex="1">
          <mxGeometry x="349.5" y="90" width="85" height="30" as="geometry" />
        </mxCell>
        <mxCell id="ZmhF_j-QxhQSGJ7hF8ik-3" value="" style="endArrow=none;html=1;rounded=0;entryX=1;entryY=0.5;entryDx=0;entryDy=0;" parent="1" target="ZmhF_j-QxhQSGJ7hF8ik-1" edge="1">
          <mxGeometry width="50" height="50" relative="1" as="geometry">
            <mxPoint x="481" y="205" as="sourcePoint" />
            <mxPoint x="111" y="175" as="targetPoint" />
          </mxGeometry>
        </mxCell>
        <mxCell id="ZmhF_j-QxhQSGJ7hF8ik-4" value="Просмотр актуальных заказов" style="ellipse;whiteSpace=wrap;html=1;" parent="1" vertex="1">
          <mxGeometry x="197.5" y="362" width="112" height="47" as="geometry" />
        </mxCell>
        <mxCell id="ZmhF_j-QxhQSGJ7hF8ik-6" value="" style="endArrow=none;html=1;rounded=0;entryX=0;entryY=0.5;entryDx=0;entryDy=0;" parent="1" target="ZmhF_j-QxhQSGJ7hF8ik-4" edge="1">
          <mxGeometry width="50" height="50" relative="1" as="geometry">
            <mxPoint x="112" y="365" as="sourcePoint" />
            <mxPoint x="302" y="350" as="targetPoint" />
          </mxGeometry>
        </mxCell>
        <mxCell id="ZmhF_j-QxhQSGJ7hF8ik-7" value="" style="endArrow=none;html=1;rounded=0;entryX=1;entryY=0.5;entryDx=0;entryDy=0;" parent="1" target="oOiD4s9uuxMNuC391UF0-11" edge="1">
          <mxGeometry width="50" height="50" relative="1" as="geometry">
            <mxPoint x="482" y="335" as="sourcePoint" />
            <mxPoint x="169.50000000000023" y="579" as="targetPoint" />
          </mxGeometry>
        </mxCell>
      </root>
    </mxGraphModel>
  </diagram>
  <diagram id="GF-1goXPkEGese5bh0JD" name="WEB">
    <mxGraphModel dx="951" dy="561" grid="1" gridSize="10" guides="1" tooltips="1" connect="1" arrows="1" fold="1" page="1" pageScale="1" pageWidth="827" pageHeight="1169" math="0" shadow="0">
      <root>
        <mxCell id="0" />
        <mxCell id="1" parent="0" />
        <mxCell id="vTeRUgWC1e7HGBPsDDmR-1" value="Главная страница" style="rounded=0;whiteSpace=wrap;html=1;" parent="1" vertex="1">
          <mxGeometry x="380" y="20" width="120" height="40" as="geometry" />
        </mxCell>
        <mxCell id="vTeRUgWC1e7HGBPsDDmR-2" value="Услуги" style="rounded=0;whiteSpace=wrap;html=1;" parent="1" vertex="1">
          <mxGeometry x="200" y="100" width="120" height="40" as="geometry" />
        </mxCell>
        <mxCell id="vTeRUgWC1e7HGBPsDDmR-3" value="Магазин" style="rounded=0;whiteSpace=wrap;html=1;" parent="1" vertex="1">
          <mxGeometry x="20" y="100" width="120" height="40" as="geometry" />
        </mxCell>
        <mxCell id="vTeRUgWC1e7HGBPsDDmR-4" value="Оформление заказа" style="rounded=0;whiteSpace=wrap;html=1;" parent="1" vertex="1">
          <mxGeometry x="380" y="100" width="120" height="40" as="geometry" />
        </mxCell>
        <mxCell id="vTeRUgWC1e7HGBPsDDmR-5" value="Личный кабинет" style="rounded=0;whiteSpace=wrap;html=1;" parent="1" vertex="1">
          <mxGeometry x="560" y="100" width="120" height="40" as="geometry" />
        </mxCell>
        <mxCell id="jl_EWgle52RGyaynNIHq-1" value="Категории" style="rounded=0;whiteSpace=wrap;html=1;" parent="1" vertex="1">
          <mxGeometry x="50" y="160" width="120" height="40" as="geometry" />
        </mxCell>
        <mxCell id="jl_EWgle52RGyaynNIHq-2" value="Товары" style="rounded=0;whiteSpace=wrap;html=1;" parent="1" vertex="1">
          <mxGeometry x="70" y="220" width="120" height="40" as="geometry" />
        </mxCell>
        <mxCell id="jl_EWgle52RGyaynNIHq-3" value="Аренда студии" style="rounded=0;whiteSpace=wrap;html=1;" parent="1" vertex="1">
          <mxGeometry x="230" y="160" width="120" height="30" as="geometry" />
        </mxCell>
        <mxCell id="jl_EWgle52RGyaynNIHq-5" value="Регистрация" style="rounded=0;whiteSpace=wrap;html=1;" parent="1" vertex="1">
          <mxGeometry x="590" y="160" width="120" height="30" as="geometry" />
        </mxCell>
        <mxCell id="W1Lc6KSN7hBQ7XYfxQfb-1" value="Услуги фотографа" style="rounded=0;whiteSpace=wrap;html=1;" parent="1" vertex="1">
          <mxGeometry x="230" y="270" width="120" height="30" as="geometry" />
        </mxCell>
        <mxCell id="W1Lc6KSN7hBQ7XYfxQfb-2" value="Аренда оборудования" style="rounded=0;whiteSpace=wrap;html=1;" parent="1" vertex="1">
          <mxGeometry x="230" y="210" width="120" height="40" as="geometry" />
        </mxCell>
        <mxCell id="W1Lc6KSN7hBQ7XYfxQfb-3" value="Съемка в студии" style="rounded=0;whiteSpace=wrap;html=1;" parent="1" vertex="1">
          <mxGeometry x="260" y="320" width="120" height="30" as="geometry" />
        </mxCell>
        <mxCell id="W1Lc6KSN7hBQ7XYfxQfb-4" value="Выездная съемка" style="rounded=0;whiteSpace=wrap;html=1;" parent="1" vertex="1">
          <mxGeometry x="260" y="370" width="120" height="30" as="geometry" />
        </mxCell>
        <mxCell id="W1Lc6KSN7hBQ7XYfxQfb-5" value="Авторизация" style="rounded=0;whiteSpace=wrap;html=1;" parent="1" vertex="1">
          <mxGeometry x="590" y="210" width="120" height="30" as="geometry" />
        </mxCell>
        <mxCell id="W1Lc6KSN7hBQ7XYfxQfb-7" value="" style="endArrow=none;html=1;rounded=0;entryX=0.5;entryY=1;entryDx=0;entryDy=0;exitX=0.5;exitY=0;exitDx=0;exitDy=0;" parent="1" source="vTeRUgWC1e7HGBPsDDmR-3" target="vTeRUgWC1e7HGBPsDDmR-1" edge="1">
          <mxGeometry width="50" height="50" relative="1" as="geometry">
            <mxPoint x="360" y="260" as="sourcePoint" />
            <mxPoint x="354" y="70" as="targetPoint" />
            <Array as="points">
              <mxPoint x="80" y="80" />
              <mxPoint x="440" y="80" />
            </Array>
          </mxGeometry>
        </mxCell>
        <mxCell id="W1Lc6KSN7hBQ7XYfxQfb-8" value="" style="endArrow=none;html=1;rounded=0;entryX=0.5;entryY=1;entryDx=0;entryDy=0;exitX=0.5;exitY=0;exitDx=0;exitDy=0;" parent="1" source="vTeRUgWC1e7HGBPsDDmR-2" target="vTeRUgWC1e7HGBPsDDmR-1" edge="1">
          <mxGeometry width="50" height="50" relative="1" as="geometry">
            <mxPoint x="360" y="260" as="sourcePoint" />
            <mxPoint x="354" y="70" as="targetPoint" />
            <Array as="points">
              <mxPoint x="260" y="80" />
              <mxPoint x="440" y="80" />
            </Array>
          </mxGeometry>
        </mxCell>
        <mxCell id="W1Lc6KSN7hBQ7XYfxQfb-9" value="" style="endArrow=none;html=1;rounded=0;entryX=0.5;entryY=1;entryDx=0;entryDy=0;exitX=0.5;exitY=0;exitDx=0;exitDy=0;" parent="1" source="vTeRUgWC1e7HGBPsDDmR-5" target="vTeRUgWC1e7HGBPsDDmR-1" edge="1">
          <mxGeometry width="50" height="50" relative="1" as="geometry">
            <mxPoint x="360" y="260" as="sourcePoint" />
            <mxPoint x="354" y="70" as="targetPoint" />
            <Array as="points">
              <mxPoint x="620" y="80" />
              <mxPoint x="440" y="80" />
            </Array>
          </mxGeometry>
        </mxCell>
        <mxCell id="W1Lc6KSN7hBQ7XYfxQfb-10" value="" style="endArrow=none;html=1;rounded=0;entryX=0.5;entryY=1;entryDx=0;entryDy=0;exitX=0.5;exitY=0;exitDx=0;exitDy=0;" parent="1" source="vTeRUgWC1e7HGBPsDDmR-4" target="vTeRUgWC1e7HGBPsDDmR-1" edge="1">
          <mxGeometry width="50" height="50" relative="1" as="geometry">
            <mxPoint x="360" y="260" as="sourcePoint" />
            <mxPoint x="354" y="70" as="targetPoint" />
            <Array as="points">
              <mxPoint x="440" y="80" />
            </Array>
          </mxGeometry>
        </mxCell>
        <mxCell id="W1Lc6KSN7hBQ7XYfxQfb-13" value="" style="endArrow=none;html=1;rounded=0;exitX=0;exitY=0.5;exitDx=0;exitDy=0;" parent="1" source="jl_EWgle52RGyaynNIHq-1" edge="1">
          <mxGeometry width="50" height="50" relative="1" as="geometry">
            <mxPoint x="50" y="230" as="sourcePoint" />
            <mxPoint x="30" y="140" as="targetPoint" />
            <Array as="points">
              <mxPoint x="30" y="180" />
            </Array>
          </mxGeometry>
        </mxCell>
        <mxCell id="W1Lc6KSN7hBQ7XYfxQfb-14" value="" style="endArrow=none;html=1;rounded=0;exitX=0;exitY=0.5;exitDx=0;exitDy=0;" parent="1" source="W1Lc6KSN7hBQ7XYfxQfb-2" edge="1">
          <mxGeometry width="50" height="50" relative="1" as="geometry">
            <mxPoint x="230" y="240" as="sourcePoint" />
            <mxPoint x="210" y="140" as="targetPoint" />
            <Array as="points">
              <mxPoint x="210" y="230" />
            </Array>
          </mxGeometry>
        </mxCell>
        <mxCell id="W1Lc6KSN7hBQ7XYfxQfb-15" value="" style="endArrow=none;html=1;rounded=0;exitX=0;exitY=0.5;exitDx=0;exitDy=0;" parent="1" source="jl_EWgle52RGyaynNIHq-3" edge="1">
          <mxGeometry width="50" height="50" relative="1" as="geometry">
            <mxPoint x="230" y="180" as="sourcePoint" />
            <mxPoint x="210" y="140" as="targetPoint" />
            <Array as="points">
              <mxPoint x="210" y="175" />
            </Array>
          </mxGeometry>
        </mxCell>
        <mxCell id="W1Lc6KSN7hBQ7XYfxQfb-16" value="" style="endArrow=none;html=1;rounded=0;exitX=0;exitY=0.5;exitDx=0;exitDy=0;" parent="1" source="W1Lc6KSN7hBQ7XYfxQfb-1" edge="1">
          <mxGeometry width="50" height="50" relative="1" as="geometry">
            <mxPoint x="230" y="240" as="sourcePoint" />
            <mxPoint x="210" y="140" as="targetPoint" />
            <Array as="points">
              <mxPoint x="210" y="285" />
            </Array>
          </mxGeometry>
        </mxCell>
        <mxCell id="W1Lc6KSN7hBQ7XYfxQfb-17" value="" style="endArrow=none;html=1;rounded=0;exitX=0;exitY=0.5;exitDx=0;exitDy=0;" parent="1" source="W1Lc6KSN7hBQ7XYfxQfb-3" edge="1">
          <mxGeometry width="50" height="50" relative="1" as="geometry">
            <mxPoint x="260" y="340" as="sourcePoint" />
            <mxPoint x="240" y="300" as="targetPoint" />
            <Array as="points">
              <mxPoint x="240" y="335" />
            </Array>
          </mxGeometry>
        </mxCell>
        <mxCell id="W1Lc6KSN7hBQ7XYfxQfb-18" value="" style="endArrow=none;html=1;rounded=0;exitX=0;exitY=0.5;exitDx=0;exitDy=0;" parent="1" source="W1Lc6KSN7hBQ7XYfxQfb-4" edge="1">
          <mxGeometry width="50" height="50" relative="1" as="geometry">
            <mxPoint x="260" y="340" as="sourcePoint" />
            <mxPoint x="240" y="300" as="targetPoint" />
            <Array as="points">
              <mxPoint x="240" y="385" />
            </Array>
          </mxGeometry>
        </mxCell>
        <mxCell id="W1Lc6KSN7hBQ7XYfxQfb-19" value="" style="endArrow=none;html=1;rounded=0;exitX=0;exitY=0.5;exitDx=0;exitDy=0;" parent="1" source="jl_EWgle52RGyaynNIHq-5" edge="1">
          <mxGeometry width="50" height="50" relative="1" as="geometry">
            <mxPoint x="590" y="175" as="sourcePoint" />
            <mxPoint x="570" y="140" as="targetPoint" />
            <Array as="points">
              <mxPoint x="570" y="175" />
            </Array>
          </mxGeometry>
        </mxCell>
        <mxCell id="W1Lc6KSN7hBQ7XYfxQfb-20" value="" style="endArrow=none;html=1;rounded=0;exitX=0;exitY=0.5;exitDx=0;exitDy=0;" parent="1" source="W1Lc6KSN7hBQ7XYfxQfb-5" edge="1">
          <mxGeometry width="50" height="50" relative="1" as="geometry">
            <mxPoint x="590" y="175" as="sourcePoint" />
            <mxPoint x="570" y="140" as="targetPoint" />
            <Array as="points">
              <mxPoint x="570" y="225" />
            </Array>
          </mxGeometry>
        </mxCell>
        <mxCell id="W1Lc6KSN7hBQ7XYfxQfb-23" value="О компании" style="rounded=0;whiteSpace=wrap;html=1;" parent="1" vertex="1">
          <mxGeometry x="740" y="100" width="120" height="40" as="geometry" />
        </mxCell>
        <mxCell id="W1Lc6KSN7hBQ7XYfxQfb-24" value="" style="endArrow=none;html=1;rounded=0;entryX=0.5;entryY=1;entryDx=0;entryDy=0;exitX=0.5;exitY=0;exitDx=0;exitDy=0;" parent="1" source="W1Lc6KSN7hBQ7XYfxQfb-23" target="vTeRUgWC1e7HGBPsDDmR-1" edge="1">
          <mxGeometry width="50" height="50" relative="1" as="geometry">
            <mxPoint x="360" y="260" as="sourcePoint" />
            <mxPoint x="354" y="70" as="targetPoint" />
            <Array as="points">
              <mxPoint x="800" y="80" />
              <mxPoint x="440" y="80" />
            </Array>
          </mxGeometry>
        </mxCell>
        <mxCell id="PBsod51hD518IEho4CJW-3" value="История заказов" style="rounded=0;whiteSpace=wrap;html=1;" parent="1" vertex="1">
          <mxGeometry x="590" y="360" width="120" height="30" as="geometry" />
        </mxCell>
        <mxCell id="PBsod51hD518IEho4CJW-4" value="Фотоархив" style="rounded=0;whiteSpace=wrap;html=1;" parent="1" vertex="1">
          <mxGeometry x="590" y="310" width="120" height="30" as="geometry" />
        </mxCell>
        <mxCell id="PBsod51hD518IEho4CJW-5" value="" style="endArrow=none;html=1;rounded=0;exitX=0;exitY=0.5;exitDx=0;exitDy=0;" parent="1" source="PBsod51hD518IEho4CJW-4" edge="1">
          <mxGeometry width="50" height="50" relative="1" as="geometry">
            <mxPoint x="590" y="175" as="sourcePoint" />
            <mxPoint x="570" y="140" as="targetPoint" />
            <Array as="points">
              <mxPoint x="570" y="325" />
            </Array>
          </mxGeometry>
        </mxCell>
        <mxCell id="PBsod51hD518IEho4CJW-6" value="" style="endArrow=none;html=1;rounded=0;exitX=0;exitY=0.5;exitDx=0;exitDy=0;" parent="1" source="PBsod51hD518IEho4CJW-3" edge="1">
          <mxGeometry width="50" height="50" relative="1" as="geometry">
            <mxPoint x="590" y="175" as="sourcePoint" />
            <mxPoint x="570" y="140" as="targetPoint" />
            <Array as="points">
              <mxPoint x="570" y="375" />
            </Array>
          </mxGeometry>
        </mxCell>
        <mxCell id="lyhEa6nCepVmu3lSq_Px-1" value="Актуальные заказы" style="rounded=0;whiteSpace=wrap;html=1;" parent="1" vertex="1">
          <mxGeometry x="590" y="260" width="120" height="30" as="geometry" />
        </mxCell>
        <mxCell id="lyhEa6nCepVmu3lSq_Px-2" value="" style="endArrow=none;html=1;rounded=0;exitX=0;exitY=0.5;exitDx=0;exitDy=0;" parent="1" source="lyhEa6nCepVmu3lSq_Px-1" edge="1">
          <mxGeometry width="50" height="50" relative="1" as="geometry">
            <mxPoint x="590" y="175" as="sourcePoint" />
            <mxPoint x="570" y="140" as="targetPoint" />
            <Array as="points">
              <mxPoint x="570" y="275" />
            </Array>
          </mxGeometry>
        </mxCell>
        <mxCell id="DIIoWMty7zyUKbJI-P8R-1" value="" style="endArrow=none;html=1;rounded=0;exitX=0;exitY=0.5;exitDx=0;exitDy=0;" edge="1" parent="1" source="jl_EWgle52RGyaynNIHq-2">
          <mxGeometry width="50" height="50" relative="1" as="geometry">
            <mxPoint x="80" y="235" as="sourcePoint" />
            <mxPoint x="60" y="200" as="targetPoint" />
            <Array as="points">
              <mxPoint x="60" y="240" />
            </Array>
          </mxGeometry>
        </mxCell>
      </root>
    </mxGraphModel>
  </diagram>
  <diagram id="FL2OOIMxEZOmNxT4FlR3" name="архитектура">
    <mxGraphModel dx="679" dy="400" grid="1" gridSize="10" guides="1" tooltips="1" connect="1" arrows="1" fold="1" page="1" pageScale="1" pageWidth="827" pageHeight="1169" math="0" shadow="0">
      <root>
        <mxCell id="0" />
        <mxCell id="1" parent="0" />
        <mxCell id="x2GXWfgpv_6BT1zfCXeD-7" value="Web-browser" style="verticalAlign=top;align=left;spacingTop=8;spacingLeft=2;spacingRight=12;shape=cube;size=10;direction=south;fontStyle=4;html=1;whiteSpace=wrap;" vertex="1" parent="1">
          <mxGeometry x="190" y="250" width="90" height="50" as="geometry" />
        </mxCell>
        <mxCell id="x2GXWfgpv_6BT1zfCXeD-8" value="Server" style="verticalAlign=top;align=left;spacingTop=8;spacingLeft=2;spacingRight=12;shape=cube;size=10;direction=south;fontStyle=4;html=1;whiteSpace=wrap;" vertex="1" parent="1">
          <mxGeometry x="370" y="250" width="80" height="50" as="geometry" />
        </mxCell>
        <mxCell id="x2GXWfgpv_6BT1zfCXeD-9" value="Database" style="verticalAlign=top;align=left;spacingTop=8;spacingLeft=2;spacingRight=12;shape=cube;size=10;direction=south;fontStyle=4;html=1;whiteSpace=wrap;" vertex="1" parent="1">
          <mxGeometry x="520" y="250" width="90" height="50" as="geometry" />
        </mxCell>
        <mxCell id="x2GXWfgpv_6BT1zfCXeD-10" value="" style="endArrow=classic;startArrow=classic;html=1;rounded=0;" edge="1" parent="1" source="x2GXWfgpv_6BT1zfCXeD-7" target="x2GXWfgpv_6BT1zfCXeD-8">
          <mxGeometry width="50" height="50" relative="1" as="geometry">
            <mxPoint x="280" y="380" as="sourcePoint" />
            <mxPoint x="330" y="330" as="targetPoint" />
          </mxGeometry>
        </mxCell>
        <mxCell id="x2GXWfgpv_6BT1zfCXeD-11" value="HTTP-запросы&lt;div&gt;JSON&lt;/div&gt;" style="edgeLabel;html=1;align=center;verticalAlign=middle;resizable=0;points=[];labelBackgroundColor=none;fontSize=7;" vertex="1" connectable="0" parent="x2GXWfgpv_6BT1zfCXeD-10">
          <mxGeometry x="-0.0593" y="-2" relative="1" as="geometry">
            <mxPoint y="-2" as="offset" />
          </mxGeometry>
        </mxCell>
        <mxCell id="x2GXWfgpv_6BT1zfCXeD-12" value="" style="endArrow=classic;startArrow=classic;html=1;rounded=0;" edge="1" parent="1" source="x2GXWfgpv_6BT1zfCXeD-8" target="x2GXWfgpv_6BT1zfCXeD-9">
          <mxGeometry width="50" height="50" relative="1" as="geometry">
            <mxPoint x="460" y="274.83" as="sourcePoint" />
            <mxPoint x="510" y="270" as="targetPoint" />
          </mxGeometry>
        </mxCell>
        <mxCell id="x2GXWfgpv_6BT1zfCXeD-13" value="SQL-запросы" style="edgeLabel;html=1;align=center;verticalAlign=middle;resizable=0;points=[];labelBackgroundColor=none;fontSize=7;" vertex="1" connectable="0" parent="x2GXWfgpv_6BT1zfCXeD-12">
          <mxGeometry x="-0.0593" y="-2" relative="1" as="geometry">
            <mxPoint x="4" y="-6" as="offset" />
          </mxGeometry>
        </mxCell>
      </root>
    </mxGraphModel>
  </diagram>
  <diagram id="XnHkIuyEJiZqe5lMz1hs" name="Sites">
    <mxGraphModel dx="1783" dy="1051" grid="1" gridSize="10" guides="1" tooltips="1" connect="1" arrows="1" fold="1" page="1" pageScale="1" pageWidth="827" pageHeight="1169" math="0" shadow="0">
      <root>
        <mxCell id="0" />
        <mxCell id="1" parent="0" />
        <mxCell id="roCjcauqRAiLrfxYBQao-1" value="" style="rounded=0;whiteSpace=wrap;html=1;aspect=fixed;" vertex="1" parent="1">
          <mxGeometry x="40" y="40" width="720" height="405" as="geometry" />
        </mxCell>
        <mxCell id="roCjcauqRAiLrfxYBQao-2" value="" style="rounded=0;whiteSpace=wrap;html=1;" vertex="1" parent="1">
          <mxGeometry x="40" y="40" width="720" height="50" as="geometry" />
        </mxCell>
        <mxCell id="roCjcauqRAiLrfxYBQao-3" value="Наименование" style="rounded=0;whiteSpace=wrap;html=1;" vertex="1" parent="1">
          <mxGeometry x="220" y="40" width="190" height="50" as="geometry" />
        </mxCell>
        <mxCell id="roCjcauqRAiLrfxYBQao-4" value="Логотип" style="rounded=0;whiteSpace=wrap;html=1;" vertex="1" parent="1">
          <mxGeometry x="160" y="40" width="60" height="50" as="geometry" />
        </mxCell>
        <mxCell id="roCjcauqRAiLrfxYBQao-5" value="Личный кабинет" style="rounded=0;whiteSpace=wrap;html=1;" vertex="1" parent="1">
          <mxGeometry x="660" y="50" width="80" height="30" as="geometry" />
        </mxCell>
        <mxCell id="roCjcauqRAiLrfxYBQao-6" value="Услуги" style="rounded=0;whiteSpace=wrap;html=1;" vertex="1" parent="1">
          <mxGeometry x="250" y="110" width="80" height="30" as="geometry" />
        </mxCell>
        <mxCell id="roCjcauqRAiLrfxYBQao-7" value="Магазин" style="rounded=0;whiteSpace=wrap;html=1;" vertex="1" parent="1">
          <mxGeometry x="360" y="110" width="80" height="30" as="geometry" />
        </mxCell>
        <mxCell id="roCjcauqRAiLrfxYBQao-8" value="О компании" style="rounded=0;whiteSpace=wrap;html=1;" vertex="1" parent="1">
          <mxGeometry x="470" y="110" width="80" height="30" as="geometry" />
        </mxCell>
        <mxCell id="roCjcauqRAiLrfxYBQao-9" value="Корзина" style="rounded=0;whiteSpace=wrap;html=1;" vertex="1" parent="1">
          <mxGeometry x="630" y="110" width="120" height="30" as="geometry" />
        </mxCell>
        <mxCell id="YkSjo4WDCdUTLPPNobvg-1" value="Основное содержимое" style="rounded=0;whiteSpace=wrap;html=1;" vertex="1" parent="1">
          <mxGeometry x="120" y="160" width="560" height="250" as="geometry" />
        </mxCell>
        <mxCell id="YkSjo4WDCdUTLPPNobvg-2" value="" style="rounded=0;whiteSpace=wrap;html=1;aspect=fixed;" vertex="1" parent="1">
          <mxGeometry x="40" y="480" width="720" height="405" as="geometry" />
        </mxCell>
        <mxCell id="YkSjo4WDCdUTLPPNobvg-3" value="" style="rounded=0;whiteSpace=wrap;html=1;" vertex="1" parent="1">
          <mxGeometry x="40" y="480" width="720" height="50" as="geometry" />
        </mxCell>
        <mxCell id="YkSjo4WDCdUTLPPNobvg-4" value="Наименование" style="rounded=0;whiteSpace=wrap;html=1;" vertex="1" parent="1">
          <mxGeometry x="220" y="480" width="190" height="50" as="geometry" />
        </mxCell>
        <mxCell id="YkSjo4WDCdUTLPPNobvg-5" value="Логотип" style="rounded=0;whiteSpace=wrap;html=1;" vertex="1" parent="1">
          <mxGeometry x="160" y="480" width="60" height="50" as="geometry" />
        </mxCell>
        <mxCell id="YkSjo4WDCdUTLPPNobvg-6" value="Личный кабинет" style="rounded=0;whiteSpace=wrap;html=1;" vertex="1" parent="1">
          <mxGeometry x="660" y="490" width="80" height="30" as="geometry" />
        </mxCell>
        <mxCell id="YkSjo4WDCdUTLPPNobvg-7" value="Услуги" style="rounded=0;whiteSpace=wrap;html=1;fontSize=16;fontStyle=1" vertex="1" parent="1">
          <mxGeometry x="240" y="545" width="120" height="40" as="geometry" />
        </mxCell>
        <mxCell id="YkSjo4WDCdUTLPPNobvg-8" value="Магазин" style="rounded=0;whiteSpace=wrap;html=1;" vertex="1" parent="1">
          <mxGeometry x="390" y="550" width="80" height="30" as="geometry" />
        </mxCell>
        <mxCell id="YkSjo4WDCdUTLPPNobvg-9" value="О компании" style="rounded=0;whiteSpace=wrap;html=1;" vertex="1" parent="1">
          <mxGeometry x="500" y="550" width="80" height="30" as="geometry" />
        </mxCell>
        <mxCell id="YkSjo4WDCdUTLPPNobvg-10" value="Корзина" style="rounded=0;whiteSpace=wrap;html=1;" vertex="1" parent="1">
          <mxGeometry x="630" y="550" width="120" height="30" as="geometry" />
        </mxCell>
        <mxCell id="YkSjo4WDCdUTLPPNobvg-11" value="" style="rounded=0;whiteSpace=wrap;html=1;" vertex="1" parent="1">
          <mxGeometry x="120" y="600" width="560" height="250" as="geometry" />
        </mxCell>
        <mxCell id="YkSjo4WDCdUTLPPNobvg-12" value="" style="rounded=0;whiteSpace=wrap;html=1;aspect=fixed;" vertex="1" parent="1">
          <mxGeometry x="40" y="920" width="720" height="405" as="geometry" />
        </mxCell>
        <mxCell id="YkSjo4WDCdUTLPPNobvg-13" value="" style="rounded=0;whiteSpace=wrap;html=1;" vertex="1" parent="1">
          <mxGeometry x="40" y="920" width="720" height="50" as="geometry" />
        </mxCell>
        <mxCell id="YkSjo4WDCdUTLPPNobvg-14" value="Наименование" style="rounded=0;whiteSpace=wrap;html=1;" vertex="1" parent="1">
          <mxGeometry x="220" y="920" width="190" height="50" as="geometry" />
        </mxCell>
        <mxCell id="YkSjo4WDCdUTLPPNobvg-15" value="Логотип" style="rounded=0;whiteSpace=wrap;html=1;" vertex="1" parent="1">
          <mxGeometry x="160" y="920" width="60" height="50" as="geometry" />
        </mxCell>
        <mxCell id="YkSjo4WDCdUTLPPNobvg-16" value="Личный кабинет" style="rounded=0;whiteSpace=wrap;html=1;" vertex="1" parent="1">
          <mxGeometry x="660" y="930" width="80" height="30" as="geometry" />
        </mxCell>
        <mxCell id="YkSjo4WDCdUTLPPNobvg-18" value="Магазин" style="rounded=0;whiteSpace=wrap;html=1;fontStyle=1;fontSize=16;" vertex="1" parent="1">
          <mxGeometry x="350" y="985" width="120" height="40" as="geometry" />
        </mxCell>
        <mxCell id="YkSjo4WDCdUTLPPNobvg-19" value="О компании" style="rounded=0;whiteSpace=wrap;html=1;" vertex="1" parent="1">
          <mxGeometry x="500" y="990" width="80" height="30" as="geometry" />
        </mxCell>
        <mxCell id="YkSjo4WDCdUTLPPNobvg-20" value="Корзина" style="rounded=0;whiteSpace=wrap;html=1;" vertex="1" parent="1">
          <mxGeometry x="630" y="990" width="120" height="30" as="geometry" />
        </mxCell>
        <mxCell id="YkSjo4WDCdUTLPPNobvg-21" value="" style="rounded=0;whiteSpace=wrap;html=1;" vertex="1" parent="1">
          <mxGeometry x="220" y="1040" width="460" height="250" as="geometry" />
        </mxCell>
        <mxCell id="YkSjo4WDCdUTLPPNobvg-22" value="Услуги" style="rounded=0;whiteSpace=wrap;html=1;" vertex="1" parent="1">
          <mxGeometry x="240" y="990" width="80" height="30" as="geometry" />
        </mxCell>
        <mxCell id="YkSjo4WDCdUTLPPNobvg-23" value="Категории товаров" style="rounded=0;whiteSpace=wrap;html=1;" vertex="1" parent="1">
          <mxGeometry x="120" y="1040" width="100" height="250" as="geometry" />
        </mxCell>
        <mxCell id="YkSjo4WDCdUTLPPNobvg-25" value="" style="rounded=0;whiteSpace=wrap;html=1;aspect=fixed;" vertex="1" parent="1">
          <mxGeometry x="40" y="1360" width="720" height="405" as="geometry" />
        </mxCell>
        <mxCell id="YkSjo4WDCdUTLPPNobvg-26" value="" style="rounded=0;whiteSpace=wrap;html=1;" vertex="1" parent="1">
          <mxGeometry x="40" y="1360" width="720" height="50" as="geometry" />
        </mxCell>
        <mxCell id="YkSjo4WDCdUTLPPNobvg-27" value="Наименование" style="rounded=0;whiteSpace=wrap;html=1;" vertex="1" parent="1">
          <mxGeometry x="220" y="1360" width="190" height="50" as="geometry" />
        </mxCell>
        <mxCell id="YkSjo4WDCdUTLPPNobvg-28" value="Логотип" style="rounded=0;whiteSpace=wrap;html=1;" vertex="1" parent="1">
          <mxGeometry x="160" y="1360" width="60" height="50" as="geometry" />
        </mxCell>
        <mxCell id="YkSjo4WDCdUTLPPNobvg-29" value="Личный кабинет" style="rounded=0;whiteSpace=wrap;html=1;" vertex="1" parent="1">
          <mxGeometry x="660" y="1370" width="80" height="30" as="geometry" />
        </mxCell>
        <mxCell id="YkSjo4WDCdUTLPPNobvg-30" value="Услуги" style="rounded=0;whiteSpace=wrap;html=1;" vertex="1" parent="1">
          <mxGeometry x="240" y="1430" width="80" height="30" as="geometry" />
        </mxCell>
        <mxCell id="YkSjo4WDCdUTLPPNobvg-32" value="О компании" style="rounded=0;whiteSpace=wrap;html=1;fontStyle=1;fontSize=16;" vertex="1" parent="1">
          <mxGeometry x="460" y="1425" width="120" height="40" as="geometry" />
        </mxCell>
        <mxCell id="YkSjo4WDCdUTLPPNobvg-33" value="Корзина" style="rounded=0;whiteSpace=wrap;html=1;" vertex="1" parent="1">
          <mxGeometry x="630" y="1430" width="120" height="30" as="geometry" />
        </mxCell>
        <mxCell id="YkSjo4WDCdUTLPPNobvg-34" value="Основное содержимое" style="rounded=0;whiteSpace=wrap;html=1;" vertex="1" parent="1">
          <mxGeometry x="120" y="1480" width="560" height="250" as="geometry" />
        </mxCell>
        <mxCell id="YkSjo4WDCdUTLPPNobvg-68" value="Главная" style="rounded=0;whiteSpace=wrap;html=1;fontSize=16;fontStyle=1" vertex="1" parent="1">
          <mxGeometry x="100" y="105" width="120" height="40" as="geometry" />
        </mxCell>
        <mxCell id="YkSjo4WDCdUTLPPNobvg-69" value="Главная" style="rounded=0;whiteSpace=wrap;html=1;" vertex="1" parent="1">
          <mxGeometry x="130" y="550" width="80" height="30" as="geometry" />
        </mxCell>
        <mxCell id="YkSjo4WDCdUTLPPNobvg-70" value="&amp;nbsp; Услуга" style="whiteSpace=wrap;html=1;fontStyle=1;align=left;" vertex="1" parent="1">
          <mxGeometry x="160" y="620" width="460" height="30" as="geometry" />
        </mxCell>
        <mxCell id="YkSjo4WDCdUTLPPNobvg-71" value="&lt;span style=&quot;font-weight: normal;&quot;&gt;&lt;span style=&quot;white-space: pre;&quot;&gt;&#x9;&lt;/span&gt;Описание услуги&lt;/span&gt;" style="whiteSpace=wrap;html=1;fontStyle=1;align=left;verticalAlign=top;" vertex="1" parent="1">
          <mxGeometry x="160" y="650" width="460" height="50" as="geometry" />
        </mxCell>
        <mxCell id="YkSjo4WDCdUTLPPNobvg-72" value="&lt;span style=&quot;font-weight: normal;&quot;&gt;&lt;span style=&quot;white-space: pre;&quot;&gt;&#x9;&lt;/span&gt;Описание услуги&lt;/span&gt;" style="whiteSpace=wrap;html=1;fontStyle=1;align=left;verticalAlign=top;" vertex="1" parent="1">
          <mxGeometry x="160" y="750" width="460" height="50" as="geometry" />
        </mxCell>
        <mxCell id="YkSjo4WDCdUTLPPNobvg-73" value="&amp;nbsp; Услуга" style="whiteSpace=wrap;html=1;fontStyle=1;align=left;" vertex="1" parent="1">
          <mxGeometry x="160" y="720" width="460" height="30" as="geometry" />
        </mxCell>
        <mxCell id="YkSjo4WDCdUTLPPNobvg-74" value="&lt;span style=&quot;font-weight: normal;&quot;&gt;&lt;span style=&quot;white-space: pre;&quot;&gt;&#x9;&lt;/span&gt;Описание товара&lt;/span&gt;" style="whiteSpace=wrap;html=1;fontStyle=1;align=left;verticalAlign=top;" vertex="1" parent="1">
          <mxGeometry x="250" y="1090" width="300" height="50" as="geometry" />
        </mxCell>
        <mxCell id="YkSjo4WDCdUTLPPNobvg-75" value="Наименование товаров" style="whiteSpace=wrap;html=1;fontStyle=1;align=left;" vertex="1" parent="1">
          <mxGeometry x="250" y="1060" width="300" height="30" as="geometry" />
        </mxCell>
        <mxCell id="YkSjo4WDCdUTLPPNobvg-76" value="&lt;span style=&quot;font-weight: normal;&quot;&gt;&lt;span style=&quot;white-space: pre;&quot;&gt;&#x9;&lt;/span&gt;Описание товара&lt;/span&gt;" style="whiteSpace=wrap;html=1;fontStyle=1;align=left;verticalAlign=top;" vertex="1" parent="1">
          <mxGeometry x="250" y="1190" width="300" height="50" as="geometry" />
        </mxCell>
        <mxCell id="YkSjo4WDCdUTLPPNobvg-77" value="Наименование товара" style="whiteSpace=wrap;html=1;fontStyle=1;align=left;" vertex="1" parent="1">
          <mxGeometry x="250" y="1160" width="310" height="30" as="geometry" />
        </mxCell>
        <mxCell id="YkSjo4WDCdUTLPPNobvg-78" value="Изображение товара" style="rounded=0;whiteSpace=wrap;html=1;" vertex="1" parent="1">
          <mxGeometry x="550" y="1060" width="100" height="60" as="geometry" />
        </mxCell>
        <mxCell id="YkSjo4WDCdUTLPPNobvg-79" value="Изображение товара" style="rounded=0;whiteSpace=wrap;html=1;" vertex="1" parent="1">
          <mxGeometry x="550" y="1160" width="100" height="60" as="geometry" />
        </mxCell>
        <mxCell id="YkSjo4WDCdUTLPPNobvg-80" value="" style="rounded=0;whiteSpace=wrap;html=1;aspect=fixed;" vertex="1" parent="1">
          <mxGeometry x="800" y="920" width="720" height="405" as="geometry" />
        </mxCell>
        <mxCell id="YkSjo4WDCdUTLPPNobvg-81" value="" style="rounded=0;whiteSpace=wrap;html=1;" vertex="1" parent="1">
          <mxGeometry x="800" y="920" width="720" height="50" as="geometry" />
        </mxCell>
        <mxCell id="YkSjo4WDCdUTLPPNobvg-82" value="Наименование" style="rounded=0;whiteSpace=wrap;html=1;" vertex="1" parent="1">
          <mxGeometry x="980" y="920" width="190" height="50" as="geometry" />
        </mxCell>
        <mxCell id="YkSjo4WDCdUTLPPNobvg-83" value="Логотип" style="rounded=0;whiteSpace=wrap;html=1;" vertex="1" parent="1">
          <mxGeometry x="920" y="920" width="60" height="50" as="geometry" />
        </mxCell>
        <mxCell id="YkSjo4WDCdUTLPPNobvg-84" value="Личный кабинет" style="rounded=0;whiteSpace=wrap;html=1;" vertex="1" parent="1">
          <mxGeometry x="1420" y="930" width="80" height="30" as="geometry" />
        </mxCell>
        <mxCell id="YkSjo4WDCdUTLPPNobvg-87" value="Оформить заказ" style="rounded=0;whiteSpace=wrap;html=1;" vertex="1" parent="1">
          <mxGeometry x="1390" y="990" width="120" height="30" as="geometry" />
        </mxCell>
        <mxCell id="YkSjo4WDCdUTLPPNobvg-88" value="" style="rounded=0;whiteSpace=wrap;html=1;" vertex="1" parent="1">
          <mxGeometry x="980" y="1040" width="460" height="250" as="geometry" />
        </mxCell>
        <mxCell id="YkSjo4WDCdUTLPPNobvg-90" value="Категории товаров" style="rounded=0;whiteSpace=wrap;html=1;" vertex="1" parent="1">
          <mxGeometry x="880" y="1040" width="100" height="250" as="geometry" />
        </mxCell>
        <mxCell id="YkSjo4WDCdUTLPPNobvg-92" value="Наименование товара" style="whiteSpace=wrap;html=1;fontStyle=1;align=left;" vertex="1" parent="1">
          <mxGeometry x="1020" y="1140" width="100" height="30" as="geometry" />
        </mxCell>
        <mxCell id="YkSjo4WDCdUTLPPNobvg-95" value="Изображение товара" style="rounded=0;whiteSpace=wrap;html=1;" vertex="1" parent="1">
          <mxGeometry x="1020" y="1060" width="100" height="80" as="geometry" />
        </mxCell>
        <mxCell id="YkSjo4WDCdUTLPPNobvg-97" value="Цена" style="whiteSpace=wrap;html=1;fontStyle=1;align=right;" vertex="1" parent="1">
          <mxGeometry x="1020" y="1169" width="100" height="21" as="geometry" />
        </mxCell>
        <mxCell id="YkSjo4WDCdUTLPPNobvg-99" value="Цена" style="whiteSpace=wrap;html=1;fontStyle=1;align=right;" vertex="1" parent="1">
          <mxGeometry x="450" y="1060" width="90" height="30" as="geometry" />
        </mxCell>
        <mxCell id="YkSjo4WDCdUTLPPNobvg-100" value="Цена" style="whiteSpace=wrap;html=1;fontStyle=1;align=right;" vertex="1" parent="1">
          <mxGeometry x="450" y="1160" width="90" height="30" as="geometry" />
        </mxCell>
        <mxCell id="YkSjo4WDCdUTLPPNobvg-102" value="Главная" style="rounded=0;whiteSpace=wrap;html=1;" vertex="1" parent="1">
          <mxGeometry x="130" y="990" width="80" height="30" as="geometry" />
        </mxCell>
        <mxCell id="YkSjo4WDCdUTLPPNobvg-105" value="Магазин" style="rounded=0;whiteSpace=wrap;html=1;" vertex="1" parent="1">
          <mxGeometry x="350" y="1430" width="80" height="30" as="geometry" />
        </mxCell>
        <mxCell id="YkSjo4WDCdUTLPPNobvg-106" value="Главная" style="rounded=0;whiteSpace=wrap;html=1;" vertex="1" parent="1">
          <mxGeometry x="130" y="1430" width="80" height="30" as="geometry" />
        </mxCell>
        <mxCell id="YkSjo4WDCdUTLPPNobvg-107" value="Наименование товара" style="whiteSpace=wrap;html=1;fontStyle=1;align=left;" vertex="1" parent="1">
          <mxGeometry x="1160" y="1140" width="100" height="30" as="geometry" />
        </mxCell>
        <mxCell id="YkSjo4WDCdUTLPPNobvg-108" value="Изображение товара" style="rounded=0;whiteSpace=wrap;html=1;" vertex="1" parent="1">
          <mxGeometry x="1160" y="1060" width="100" height="80" as="geometry" />
        </mxCell>
        <mxCell id="YkSjo4WDCdUTLPPNobvg-109" value="Цена" style="whiteSpace=wrap;html=1;fontStyle=1;align=right;" vertex="1" parent="1">
          <mxGeometry x="1160" y="1169" width="100" height="21" as="geometry" />
        </mxCell>
        <mxCell id="YkSjo4WDCdUTLPPNobvg-110" value="Наименование товара" style="whiteSpace=wrap;html=1;fontStyle=1;align=left;" vertex="1" parent="1">
          <mxGeometry x="1300" y="1140" width="100" height="30" as="geometry" />
        </mxCell>
        <mxCell id="YkSjo4WDCdUTLPPNobvg-111" value="Изображение товара" style="rounded=0;whiteSpace=wrap;html=1;" vertex="1" parent="1">
          <mxGeometry x="1300" y="1060" width="100" height="80" as="geometry" />
        </mxCell>
        <mxCell id="YkSjo4WDCdUTLPPNobvg-112" value="Цена" style="whiteSpace=wrap;html=1;fontStyle=1;align=right;" vertex="1" parent="1">
          <mxGeometry x="1300" y="1169" width="100" height="21" as="geometry" />
        </mxCell>
        <mxCell id="YkSjo4WDCdUTLPPNobvg-114" value="Изображение товара" style="rounded=0;whiteSpace=wrap;html=1;verticalAlign=bottom;" vertex="1" parent="1">
          <mxGeometry x="1020" y="1230" width="100" height="60" as="geometry" />
        </mxCell>
        <mxCell id="YkSjo4WDCdUTLPPNobvg-117" value="Изображение товара" style="rounded=0;whiteSpace=wrap;html=1;verticalAlign=bottom;" vertex="1" parent="1">
          <mxGeometry x="1160" y="1230" width="100" height="60" as="geometry" />
        </mxCell>
        <mxCell id="YkSjo4WDCdUTLPPNobvg-120" value="Изображение товара" style="rounded=0;whiteSpace=wrap;html=1;verticalAlign=bottom;" vertex="1" parent="1">
          <mxGeometry x="1300" y="1230" width="100" height="60" as="geometry" />
        </mxCell>
        <mxCell id="YkSjo4WDCdUTLPPNobvg-122" value="" style="rounded=0;whiteSpace=wrap;html=1;aspect=fixed;" vertex="1" parent="1">
          <mxGeometry x="40" y="1800" width="720" height="405" as="geometry" />
        </mxCell>
        <mxCell id="YkSjo4WDCdUTLPPNobvg-123" value="" style="rounded=0;whiteSpace=wrap;html=1;" vertex="1" parent="1">
          <mxGeometry x="40" y="1800" width="720" height="50" as="geometry" />
        </mxCell>
        <mxCell id="YkSjo4WDCdUTLPPNobvg-124" value="Наименование" style="rounded=0;whiteSpace=wrap;html=1;" vertex="1" parent="1">
          <mxGeometry x="220" y="1800" width="190" height="50" as="geometry" />
        </mxCell>
        <mxCell id="YkSjo4WDCdUTLPPNobvg-125" value="Логотип" style="rounded=0;whiteSpace=wrap;html=1;" vertex="1" parent="1">
          <mxGeometry x="160" y="1800" width="60" height="50" as="geometry" />
        </mxCell>
        <mxCell id="YkSjo4WDCdUTLPPNobvg-126" value="Личный кабинет" style="rounded=0;whiteSpace=wrap;html=1;" vertex="1" parent="1">
          <mxGeometry x="660" y="1810" width="80" height="30" as="geometry" />
        </mxCell>
        <mxCell id="YkSjo4WDCdUTLPPNobvg-130" value="" style="rounded=0;whiteSpace=wrap;html=1;" vertex="1" parent="1">
          <mxGeometry x="120" y="1870" width="560" height="300" as="geometry" />
        </mxCell>
        <mxCell id="YkSjo4WDCdUTLPPNobvg-144" value="Личный кабинет ФИО" style="rounded=0;whiteSpace=wrap;html=1;align=left;" vertex="1" parent="1">
          <mxGeometry x="130" y="1880" width="340" height="30" as="geometry" />
        </mxCell>
        <mxCell id="YkSjo4WDCdUTLPPNobvg-146" value="" style="rounded=0;whiteSpace=wrap;html=1;align=left;" vertex="1" parent="1">
          <mxGeometry x="130" y="1920" width="530" height="240" as="geometry" />
        </mxCell>
        <mxCell id="YkSjo4WDCdUTLPPNobvg-148" value="Фотоархив" style="rounded=0;whiteSpace=wrap;html=1;" vertex="1" parent="1">
          <mxGeometry x="270" y="1930" width="80" height="30" as="geometry" />
        </mxCell>
        <mxCell id="YkSjo4WDCdUTLPPNobvg-149" value="История заказов" style="rounded=0;whiteSpace=wrap;html=1;" vertex="1" parent="1">
          <mxGeometry x="380" y="1930" width="80" height="30" as="geometry" />
        </mxCell>
        <mxCell id="YkSjo4WDCdUTLPPNobvg-150" value="Актуальные заказы" style="rounded=0;whiteSpace=wrap;html=1;fontStyle=1" vertex="1" parent="1">
          <mxGeometry x="140" y="1925" width="100" height="40" as="geometry" />
        </mxCell>
        <mxCell id="YkSjo4WDCdUTLPPNobvg-152" value="&lt;b&gt;№ заказа&lt;/b&gt;" style="rounded=0;whiteSpace=wrap;html=1;" vertex="1" parent="1">
          <mxGeometry x="148" y="1982.5" width="122" height="20" as="geometry" />
        </mxCell>
        <mxCell id="YkSjo4WDCdUTLPPNobvg-153" value="Дата создания заказа" style="rounded=0;whiteSpace=wrap;html=1;" vertex="1" parent="1">
          <mxGeometry x="270" y="1982.5" width="180" height="20" as="geometry" />
        </mxCell>
        <mxCell id="YkSjo4WDCdUTLPPNobvg-154" value="Статус заказа" style="rounded=0;whiteSpace=wrap;html=1;align=left;" vertex="1" parent="1">
          <mxGeometry x="148" y="2002.5" width="122" height="20" as="geometry" />
        </mxCell>
        <mxCell id="YkSjo4WDCdUTLPPNobvg-155" value="Ожидаемая дата исполнения" style="rounded=0;whiteSpace=wrap;html=1;align=left;" vertex="1" parent="1">
          <mxGeometry x="270" y="2002.5" width="180" height="20" as="geometry" />
        </mxCell>
        <mxCell id="YkSjo4WDCdUTLPPNobvg-156" value="&lt;b&gt;№ заказа&lt;/b&gt;" style="rounded=0;whiteSpace=wrap;html=1;" vertex="1" parent="1">
          <mxGeometry x="148" y="2040" width="122" height="20" as="geometry" />
        </mxCell>
        <mxCell id="YkSjo4WDCdUTLPPNobvg-157" value="Статус заказа" style="rounded=0;whiteSpace=wrap;html=1;align=left;" vertex="1" parent="1">
          <mxGeometry x="148" y="2060" width="122" height="20" as="geometry" />
        </mxCell>
        <mxCell id="YkSjo4WDCdUTLPPNobvg-158" value="Дата создания заказа" style="rounded=0;whiteSpace=wrap;html=1;" vertex="1" parent="1">
          <mxGeometry x="270" y="2040" width="180" height="20" as="geometry" />
        </mxCell>
        <mxCell id="YkSjo4WDCdUTLPPNobvg-159" value="Ожидаемая дата исполнения" style="rounded=0;whiteSpace=wrap;html=1;align=left;" vertex="1" parent="1">
          <mxGeometry x="270" y="2060" width="180" height="20" as="geometry" />
        </mxCell>
        <mxCell id="YkSjo4WDCdUTLPPNobvg-164" value="" style="rounded=0;whiteSpace=wrap;html=1;aspect=fixed;" vertex="1" parent="1">
          <mxGeometry x="40" y="2240" width="720" height="405" as="geometry" />
        </mxCell>
        <mxCell id="YkSjo4WDCdUTLPPNobvg-165" value="" style="rounded=0;whiteSpace=wrap;html=1;" vertex="1" parent="1">
          <mxGeometry x="40" y="2240" width="720" height="50" as="geometry" />
        </mxCell>
        <mxCell id="YkSjo4WDCdUTLPPNobvg-166" value="Наименование" style="rounded=0;whiteSpace=wrap;html=1;" vertex="1" parent="1">
          <mxGeometry x="220" y="2240" width="190" height="50" as="geometry" />
        </mxCell>
        <mxCell id="YkSjo4WDCdUTLPPNobvg-167" value="Логотип" style="rounded=0;whiteSpace=wrap;html=1;" vertex="1" parent="1">
          <mxGeometry x="160" y="2240" width="60" height="50" as="geometry" />
        </mxCell>
        <mxCell id="YkSjo4WDCdUTLPPNobvg-168" value="Личный кабинет" style="rounded=0;whiteSpace=wrap;html=1;" vertex="1" parent="1">
          <mxGeometry x="660" y="2250" width="80" height="30" as="geometry" />
        </mxCell>
        <mxCell id="YkSjo4WDCdUTLPPNobvg-169" value="" style="rounded=0;whiteSpace=wrap;html=1;" vertex="1" parent="1">
          <mxGeometry x="120" y="2310" width="560" height="300" as="geometry" />
        </mxCell>
        <mxCell id="YkSjo4WDCdUTLPPNobvg-170" value="Личный кабинет ФИО" style="rounded=0;whiteSpace=wrap;html=1;align=left;" vertex="1" parent="1">
          <mxGeometry x="130" y="2320" width="340" height="30" as="geometry" />
        </mxCell>
        <mxCell id="YkSjo4WDCdUTLPPNobvg-171" value="" style="rounded=0;whiteSpace=wrap;html=1;align=left;" vertex="1" parent="1">
          <mxGeometry x="130" y="2360" width="530" height="240" as="geometry" />
        </mxCell>
        <mxCell id="YkSjo4WDCdUTLPPNobvg-172" value="Фотоархив" style="rounded=0;whiteSpace=wrap;html=1;fontStyle=1" vertex="1" parent="1">
          <mxGeometry x="260" y="2365" width="100" height="40" as="geometry" />
        </mxCell>
        <mxCell id="YkSjo4WDCdUTLPPNobvg-173" value="История заказов" style="rounded=0;whiteSpace=wrap;html=1;" vertex="1" parent="1">
          <mxGeometry x="390" y="2370" width="80" height="30" as="geometry" />
        </mxCell>
        <mxCell id="YkSjo4WDCdUTLPPNobvg-174" value="Актуальные заказы" style="rounded=0;whiteSpace=wrap;html=1;fontStyle=0" vertex="1" parent="1">
          <mxGeometry x="150" y="2370" width="80" height="30" as="geometry" />
        </mxCell>
        <mxCell id="YkSjo4WDCdUTLPPNobvg-178" value="" style="rounded=0;whiteSpace=wrap;html=1;align=left;" vertex="1" parent="1">
          <mxGeometry x="260" y="2422.5" width="370" height="117.5" as="geometry" />
        </mxCell>
        <mxCell id="YkSjo4WDCdUTLPPNobvg-175" value="&lt;b&gt;Месяц&lt;/b&gt;" style="rounded=0;whiteSpace=wrap;html=1;" vertex="1" parent="1">
          <mxGeometry x="260" y="2422.5" width="122" height="20" as="geometry" />
        </mxCell>
        <mxCell id="YkSjo4WDCdUTLPPNobvg-186" value="&lt;b&gt;Фотография&lt;/b&gt;" style="rounded=0;whiteSpace=wrap;html=1;" vertex="1" parent="1">
          <mxGeometry x="281" y="2450" width="80" height="80" as="geometry" />
        </mxCell>
        <mxCell id="YkSjo4WDCdUTLPPNobvg-187" value="&lt;b&gt;Фотография&lt;/b&gt;" style="rounded=0;whiteSpace=wrap;html=1;" vertex="1" parent="1">
          <mxGeometry x="390" y="2450" width="80" height="80" as="geometry" />
        </mxCell>
        <mxCell id="YkSjo4WDCdUTLPPNobvg-190" value="Фильтры" style="rounded=0;whiteSpace=wrap;html=1;" vertex="1" parent="1">
          <mxGeometry x="150" y="2420" width="80" height="170" as="geometry" />
        </mxCell>
        <mxCell id="YkSjo4WDCdUTLPPNobvg-191" value="" style="rounded=0;whiteSpace=wrap;html=1;aspect=fixed;" vertex="1" parent="1">
          <mxGeometry x="40" y="2680" width="720" height="405" as="geometry" />
        </mxCell>
        <mxCell id="YkSjo4WDCdUTLPPNobvg-192" value="" style="rounded=0;whiteSpace=wrap;html=1;" vertex="1" parent="1">
          <mxGeometry x="40" y="2680" width="720" height="50" as="geometry" />
        </mxCell>
        <mxCell id="YkSjo4WDCdUTLPPNobvg-193" value="Наименование" style="rounded=0;whiteSpace=wrap;html=1;" vertex="1" parent="1">
          <mxGeometry x="220" y="2680" width="190" height="50" as="geometry" />
        </mxCell>
        <mxCell id="YkSjo4WDCdUTLPPNobvg-194" value="Логотип" style="rounded=0;whiteSpace=wrap;html=1;" vertex="1" parent="1">
          <mxGeometry x="160" y="2680" width="60" height="50" as="geometry" />
        </mxCell>
        <mxCell id="YkSjo4WDCdUTLPPNobvg-195" value="Личный кабинет" style="rounded=0;whiteSpace=wrap;html=1;" vertex="1" parent="1">
          <mxGeometry x="660" y="2690" width="80" height="30" as="geometry" />
        </mxCell>
        <mxCell id="YkSjo4WDCdUTLPPNobvg-196" value="" style="rounded=0;whiteSpace=wrap;html=1;" vertex="1" parent="1">
          <mxGeometry x="120" y="2750" width="560" height="300" as="geometry" />
        </mxCell>
        <mxCell id="YkSjo4WDCdUTLPPNobvg-197" value="Личный кабинет ФИО" style="rounded=0;whiteSpace=wrap;html=1;align=left;" vertex="1" parent="1">
          <mxGeometry x="130" y="2760" width="340" height="30" as="geometry" />
        </mxCell>
        <mxCell id="YkSjo4WDCdUTLPPNobvg-198" value="" style="rounded=0;whiteSpace=wrap;html=1;align=left;" vertex="1" parent="1">
          <mxGeometry x="130" y="2800" width="530" height="240" as="geometry" />
        </mxCell>
        <mxCell id="YkSjo4WDCdUTLPPNobvg-200" value="История заказов" style="rounded=0;whiteSpace=wrap;html=1;fontStyle=1" vertex="1" parent="1">
          <mxGeometry x="370" y="2805" width="100" height="40" as="geometry" />
        </mxCell>
        <mxCell id="YkSjo4WDCdUTLPPNobvg-202" value="&lt;b&gt;№ заказа&lt;/b&gt;" style="rounded=0;whiteSpace=wrap;html=1;" vertex="1" parent="1">
          <mxGeometry x="148" y="2862.5" width="122" height="20" as="geometry" />
        </mxCell>
        <mxCell id="YkSjo4WDCdUTLPPNobvg-203" value="Дата создания заказа" style="rounded=0;whiteSpace=wrap;html=1;" vertex="1" parent="1">
          <mxGeometry x="270" y="2862.5" width="180" height="20" as="geometry" />
        </mxCell>
        <mxCell id="YkSjo4WDCdUTLPPNobvg-204" value="Статус заказа" style="rounded=0;whiteSpace=wrap;html=1;align=left;" vertex="1" parent="1">
          <mxGeometry x="148" y="2882.5" width="122" height="20" as="geometry" />
        </mxCell>
        <mxCell id="YkSjo4WDCdUTLPPNobvg-205" value="Дата исполнения заказа" style="rounded=0;whiteSpace=wrap;html=1;align=left;" vertex="1" parent="1">
          <mxGeometry x="270" y="2882.5" width="180" height="20" as="geometry" />
        </mxCell>
        <mxCell id="YkSjo4WDCdUTLPPNobvg-206" value="&lt;b&gt;№ заказа&lt;/b&gt;" style="rounded=0;whiteSpace=wrap;html=1;" vertex="1" parent="1">
          <mxGeometry x="148" y="2920" width="122" height="20" as="geometry" />
        </mxCell>
        <mxCell id="YkSjo4WDCdUTLPPNobvg-207" value="Статус заказа" style="rounded=0;whiteSpace=wrap;html=1;align=left;" vertex="1" parent="1">
          <mxGeometry x="148" y="2940" width="122" height="20" as="geometry" />
        </mxCell>
        <mxCell id="YkSjo4WDCdUTLPPNobvg-208" value="Дата создания заказа" style="rounded=0;whiteSpace=wrap;html=1;" vertex="1" parent="1">
          <mxGeometry x="270" y="2920" width="180" height="20" as="geometry" />
        </mxCell>
        <mxCell id="YkSjo4WDCdUTLPPNobvg-209" value="Дата исполнения заказа" style="rounded=0;whiteSpace=wrap;html=1;align=left;" vertex="1" parent="1">
          <mxGeometry x="270" y="2940" width="180" height="20" as="geometry" />
        </mxCell>
        <mxCell id="YkSjo4WDCdUTLPPNobvg-210" value="Актуальные заказы" style="rounded=0;whiteSpace=wrap;html=1;fontStyle=0" vertex="1" parent="1">
          <mxGeometry x="150" y="2810" width="80" height="30" as="geometry" />
        </mxCell>
        <mxCell id="YkSjo4WDCdUTLPPNobvg-211" value="Фотоархив" style="rounded=0;whiteSpace=wrap;html=1;" vertex="1" parent="1">
          <mxGeometry x="260" y="2810" width="80" height="30" as="geometry" />
        </mxCell>
        <mxCell id="YkSjo4WDCdUTLPPNobvg-213" value="Добавить" style="rounded=0;whiteSpace=wrap;html=1;" vertex="1" parent="1">
          <mxGeometry x="500" y="620" width="120" height="30" as="geometry" />
        </mxCell>
        <mxCell id="YkSjo4WDCdUTLPPNobvg-214" value="Добавить" style="rounded=0;whiteSpace=wrap;html=1;" vertex="1" parent="1">
          <mxGeometry x="500" y="720" width="120" height="30" as="geometry" />
        </mxCell>
        <mxCell id="YkSjo4WDCdUTLPPNobvg-215" value="Добавить" style="rounded=0;whiteSpace=wrap;html=1;" vertex="1" parent="1">
          <mxGeometry x="1020" y="1190" width="100" height="20" as="geometry" />
        </mxCell>
        <mxCell id="YkSjo4WDCdUTLPPNobvg-216" value="Добавить" style="rounded=0;whiteSpace=wrap;html=1;" vertex="1" parent="1">
          <mxGeometry x="550" y="1220" width="100" height="20" as="geometry" />
        </mxCell>
        <mxCell id="YkSjo4WDCdUTLPPNobvg-217" value="Добавить" style="rounded=0;whiteSpace=wrap;html=1;" vertex="1" parent="1">
          <mxGeometry x="1160" y="1190" width="100" height="20" as="geometry" />
        </mxCell>
        <mxCell id="YkSjo4WDCdUTLPPNobvg-218" value="Добавить" style="rounded=0;whiteSpace=wrap;html=1;" vertex="1" parent="1">
          <mxGeometry x="1300" y="1190" width="100" height="20" as="geometry" />
        </mxCell>
        <mxCell id="YkSjo4WDCdUTLPPNobvg-219" value="Цена" style="rounded=0;whiteSpace=wrap;html=1;fontStyle=1;align=right;" vertex="1" parent="1">
          <mxGeometry x="390" y="620" width="100" height="30" as="geometry" />
        </mxCell>
        <mxCell id="YkSjo4WDCdUTLPPNobvg-220" value="Цена" style="rounded=0;whiteSpace=wrap;html=1;fontStyle=1;align=right;" vertex="1" parent="1">
          <mxGeometry x="390" y="720" width="100" height="30" as="geometry" />
        </mxCell>
        <mxCell id="YkSjo4WDCdUTLPPNobvg-234" value="Магазин" style="rounded=0;whiteSpace=wrap;html=1;fontStyle=1;fontSize=16;" vertex="1" parent="1">
          <mxGeometry x="1110" y="985" width="120" height="40" as="geometry" />
        </mxCell>
        <mxCell id="YkSjo4WDCdUTLPPNobvg-235" value="О компании" style="rounded=0;whiteSpace=wrap;html=1;" vertex="1" parent="1">
          <mxGeometry x="1260" y="990" width="80" height="30" as="geometry" />
        </mxCell>
        <mxCell id="YkSjo4WDCdUTLPPNobvg-236" value="Корзина" style="rounded=0;whiteSpace=wrap;html=1;" vertex="1" parent="1">
          <mxGeometry x="1390" y="990" width="120" height="30" as="geometry" />
        </mxCell>
        <mxCell id="YkSjo4WDCdUTLPPNobvg-237" value="Услуги" style="rounded=0;whiteSpace=wrap;html=1;" vertex="1" parent="1">
          <mxGeometry x="1000" y="990" width="80" height="30" as="geometry" />
        </mxCell>
        <mxCell id="YkSjo4WDCdUTLPPNobvg-238" value="Главная" style="rounded=0;whiteSpace=wrap;html=1;" vertex="1" parent="1">
          <mxGeometry x="890" y="990" width="80" height="30" as="geometry" />
        </mxCell>
        <mxCell id="YkSjo4WDCdUTLPPNobvg-239" value="" style="rounded=0;whiteSpace=wrap;html=1;aspect=fixed;" vertex="1" parent="1">
          <mxGeometry x="800" y="40" width="720" height="405" as="geometry" />
        </mxCell>
        <mxCell id="YkSjo4WDCdUTLPPNobvg-240" value="" style="rounded=0;whiteSpace=wrap;html=1;" vertex="1" parent="1">
          <mxGeometry x="800" y="40" width="720" height="50" as="geometry" />
        </mxCell>
        <mxCell id="YkSjo4WDCdUTLPPNobvg-241" value="Наименование" style="rounded=0;whiteSpace=wrap;html=1;" vertex="1" parent="1">
          <mxGeometry x="980" y="40" width="190" height="50" as="geometry" />
        </mxCell>
        <mxCell id="YkSjo4WDCdUTLPPNobvg-242" value="Логотип" style="rounded=0;whiteSpace=wrap;html=1;" vertex="1" parent="1">
          <mxGeometry x="920" y="40" width="60" height="50" as="geometry" />
        </mxCell>
        <mxCell id="YkSjo4WDCdUTLPPNobvg-243" value="Личный кабинет" style="rounded=0;whiteSpace=wrap;html=1;" vertex="1" parent="1">
          <mxGeometry x="1420" y="50" width="80" height="30" as="geometry" />
        </mxCell>
        <mxCell id="YkSjo4WDCdUTLPPNobvg-247" value="Корзина" style="rounded=0;whiteSpace=wrap;html=1;fontStyle=1;fontSize=16;" vertex="1" parent="1">
          <mxGeometry x="1390" y="110" width="120" height="30" as="geometry" />
        </mxCell>
        <mxCell id="YkSjo4WDCdUTLPPNobvg-248" value="" style="rounded=0;whiteSpace=wrap;html=1;align=left;verticalAlign=top;" vertex="1" parent="1">
          <mxGeometry x="880" y="160" width="560" height="250" as="geometry" />
        </mxCell>
        <mxCell id="YkSjo4WDCdUTLPPNobvg-249" value="Главная" style="rounded=0;whiteSpace=wrap;html=1;" vertex="1" parent="1">
          <mxGeometry x="890" y="110" width="80" height="30" as="geometry" />
        </mxCell>
        <mxCell id="YkSjo4WDCdUTLPPNobvg-258" value="Услуги" style="rounded=0;whiteSpace=wrap;html=1;" vertex="1" parent="1">
          <mxGeometry x="1000" y="110" width="80" height="30" as="geometry" />
        </mxCell>
        <mxCell id="YkSjo4WDCdUTLPPNobvg-259" value="Магазин" style="rounded=0;whiteSpace=wrap;html=1;" vertex="1" parent="1">
          <mxGeometry x="1110" y="110" width="80" height="30" as="geometry" />
        </mxCell>
        <mxCell id="YkSjo4WDCdUTLPPNobvg-260" value="О компании" style="rounded=0;whiteSpace=wrap;html=1;" vertex="1" parent="1">
          <mxGeometry x="1220" y="110" width="80" height="30" as="geometry" />
        </mxCell>
        <mxCell id="YkSjo4WDCdUTLPPNobvg-268" value="&amp;nbsp; Корзина" style="rounded=0;whiteSpace=wrap;html=1;align=left;verticalAlign=top;" vertex="1" parent="1">
          <mxGeometry x="880" y="160" width="560" height="200" as="geometry" />
        </mxCell>
        <mxCell id="YkSjo4WDCdUTLPPNobvg-266" value="Список товаров и услуг" style="rounded=0;whiteSpace=wrap;html=1;" vertex="1" parent="1">
          <mxGeometry x="900" y="190" width="520" height="170" as="geometry" />
        </mxCell>
        <mxCell id="YkSjo4WDCdUTLPPNobvg-269" value="Подтвердить" style="rounded=0;whiteSpace=wrap;html=1;fontStyle=1" vertex="1" parent="1">
          <mxGeometry x="1310" y="370" width="120" height="30" as="geometry" />
        </mxCell>
        <mxCell id="YkSjo4WDCdUTLPPNobvg-270" value="" style="rounded=0;whiteSpace=wrap;html=1;aspect=fixed;" vertex="1" parent="1">
          <mxGeometry x="800" y="1800" width="720" height="405" as="geometry" />
        </mxCell>
        <mxCell id="YkSjo4WDCdUTLPPNobvg-271" value="" style="rounded=0;whiteSpace=wrap;html=1;" vertex="1" parent="1">
          <mxGeometry x="800" y="1800" width="720" height="50" as="geometry" />
        </mxCell>
        <mxCell id="YkSjo4WDCdUTLPPNobvg-272" value="Наименование" style="rounded=0;whiteSpace=wrap;html=1;" vertex="1" parent="1">
          <mxGeometry x="980" y="1800" width="190" height="50" as="geometry" />
        </mxCell>
        <mxCell id="YkSjo4WDCdUTLPPNobvg-273" value="Логотип" style="rounded=0;whiteSpace=wrap;html=1;" vertex="1" parent="1">
          <mxGeometry x="920" y="1800" width="60" height="50" as="geometry" />
        </mxCell>
        <mxCell id="YkSjo4WDCdUTLPPNobvg-274" value="Личный кабинет" style="rounded=0;whiteSpace=wrap;html=1;" vertex="1" parent="1">
          <mxGeometry x="1420" y="1810" width="80" height="30" as="geometry" />
        </mxCell>
        <mxCell id="YkSjo4WDCdUTLPPNobvg-275" value="&lt;div&gt;&lt;span style=&quot;background-color: transparent; color: light-dark(rgb(0, 0, 0), rgb(255, 255, 255));&quot;&gt;Вход&lt;/span&gt;&lt;/div&gt;" style="rounded=0;whiteSpace=wrap;html=1;verticalAlign=top;strokeColor=none;" vertex="1" parent="1">
          <mxGeometry x="880" y="1870" width="560" height="300" as="geometry" />
        </mxCell>
        <mxCell id="YkSjo4WDCdUTLPPNobvg-277" value="" style="rounded=0;whiteSpace=wrap;html=1;align=center;" vertex="1" parent="1">
          <mxGeometry x="970" y="1910" width="390" height="250" as="geometry" />
        </mxCell>
        <mxCell id="YkSjo4WDCdUTLPPNobvg-291" value="Поля с указанием данных для входа" style="rounded=0;whiteSpace=wrap;html=1;" vertex="1" parent="1">
          <mxGeometry x="1050" y="1930" width="240" height="160" as="geometry" />
        </mxCell>
        <mxCell id="YkSjo4WDCdUTLPPNobvg-292" value="Войти" style="rounded=0;whiteSpace=wrap;html=1;" vertex="1" parent="1">
          <mxGeometry x="1201" y="2110" width="80" height="30" as="geometry" />
        </mxCell>
        <mxCell id="YkSjo4WDCdUTLPPNobvg-293" value="Нет аккаунта?&amp;nbsp;&lt;br&gt;&lt;u&gt;Зарегистрироваться&lt;/u&gt;" style="text;html=1;align=center;verticalAlign=middle;whiteSpace=wrap;rounded=0;" vertex="1" parent="1">
          <mxGeometry x="1070" y="2110" width="60" height="30" as="geometry" />
        </mxCell>
        <mxCell id="YkSjo4WDCdUTLPPNobvg-294" value="" style="rounded=0;whiteSpace=wrap;html=1;aspect=fixed;" vertex="1" parent="1">
          <mxGeometry x="800" y="2240" width="720" height="405" as="geometry" />
        </mxCell>
        <mxCell id="YkSjo4WDCdUTLPPNobvg-295" value="" style="rounded=0;whiteSpace=wrap;html=1;" vertex="1" parent="1">
          <mxGeometry x="800" y="2240" width="720" height="50" as="geometry" />
        </mxCell>
        <mxCell id="YkSjo4WDCdUTLPPNobvg-296" value="Наименование" style="rounded=0;whiteSpace=wrap;html=1;" vertex="1" parent="1">
          <mxGeometry x="980" y="2240" width="190" height="50" as="geometry" />
        </mxCell>
        <mxCell id="YkSjo4WDCdUTLPPNobvg-297" value="Логотип" style="rounded=0;whiteSpace=wrap;html=1;" vertex="1" parent="1">
          <mxGeometry x="920" y="2240" width="60" height="50" as="geometry" />
        </mxCell>
        <mxCell id="YkSjo4WDCdUTLPPNobvg-298" value="Личный кабинет" style="rounded=0;whiteSpace=wrap;html=1;" vertex="1" parent="1">
          <mxGeometry x="1420" y="2250" width="80" height="30" as="geometry" />
        </mxCell>
        <mxCell id="YkSjo4WDCdUTLPPNobvg-299" value="&lt;div&gt;&lt;span style=&quot;background-color: transparent; color: light-dark(rgb(0, 0, 0), rgb(255, 255, 255));&quot;&gt;Регистрация&lt;/span&gt;&lt;/div&gt;" style="rounded=0;whiteSpace=wrap;html=1;verticalAlign=top;strokeColor=none;" vertex="1" parent="1">
          <mxGeometry x="880" y="2310" width="560" height="300" as="geometry" />
        </mxCell>
        <mxCell id="YkSjo4WDCdUTLPPNobvg-300" value="" style="rounded=0;whiteSpace=wrap;html=1;align=center;" vertex="1" parent="1">
          <mxGeometry x="970" y="2350" width="390" height="250" as="geometry" />
        </mxCell>
        <mxCell id="YkSjo4WDCdUTLPPNobvg-301" value="Поля с указанием данных для регистрации" style="rounded=0;whiteSpace=wrap;html=1;" vertex="1" parent="1">
          <mxGeometry x="1050" y="2370" width="240" height="160" as="geometry" />
        </mxCell>
        <mxCell id="YkSjo4WDCdUTLPPNobvg-302" value="Зарегистрироваться" style="rounded=0;whiteSpace=wrap;html=1;" vertex="1" parent="1">
          <mxGeometry x="1160" y="2550" width="130" height="30" as="geometry" />
        </mxCell>
        <mxCell id="YkSjo4WDCdUTLPPNobvg-303" value="Уже есть аккаунт?&lt;br&gt;&lt;u&gt;Войти по логину&lt;/u&gt;" style="text;html=1;align=center;verticalAlign=middle;whiteSpace=wrap;rounded=0;" vertex="1" parent="1">
          <mxGeometry x="1010" y="2550" width="130" height="30" as="geometry" />
        </mxCell>
      </root>
    </mxGraphModel>
  </diagram>
</mxfile>
